<?xml version="1.0" encoding="UTF-8"?>
<svg width="360px" height="360px" viewBox="0 0 360 360" version="1.1" xmlns="http://www.w3.org/2000/svg" xmlns:xlink="http://www.w3.org/1999/xlink">
    <!-- Generator: Sketch 63.1 (92452) - https://sketch.com -->
    <title>扫描1</title>
    <desc>Created with Sketch.</desc>
    <g id="南方电网" stroke="none" stroke-width="1" fill="none" fill-rule="evenodd">
        <g id="设备扫描_蓝牙连接成功_扫描中" transform="translate(-195.000000, -288.000000)">
            <g id="编组-3" transform="translate(195.000000, 288.000000)">
                <g id="扫描1">
                    <g id="编组-2" transform="translate(0.000000, 180.000000)" fill="#4699FA" fill-rule="nonzero">
                        <polygon id="路径-7" points="180 -0.5 180 1.5 0 1.5 0 -0.5"></polygon>
                        <path d="M180,1.5 L184,1.5 L184,-0.5 L180,-0.5 L180,1.5 Z M188,1.5 L192,1.5 L192,-0.5 L188,-0.5 L188,1.5 Z M196,1.5 L200,1.5 L200,-0.5 L196,-0.5 L196,1.5 Z M204,1.5 L208,1.5 L208,-0.5 L204,-0.5 L204,1.5 Z M212,1.5 L216,1.5 L216,-0.5 L212,-0.5 L212,1.5 Z M220,1.5 L224,1.5 L224,-0.5 L220,-0.5 L220,1.5 Z M228,1.5 L232,1.5 L232,-0.5 L228,-0.5 L228,1.5 Z M236,1.5 L240,1.5 L240,-0.5 L236,-0.5 L236,1.5 Z M244,1.5 L248,1.5 L248,-0.5 L244,-0.5 L244,1.5 Z M252,1.5 L256,1.5 L256,-0.5 L252,-0.5 L252,1.5 Z M260,1.5 L264,1.5 L264,-0.5 L260,-0.5 L260,1.5 Z M268,1.5 L272,1.5 L272,-0.5 L268,-0.5 L268,1.5 Z M276,1.5 L280,1.5 L280,-0.5 L276,-0.5 L276,1.5 Z M284,1.5 L288,1.5 L288,-0.5 L284,-0.5 L284,1.5 Z M292,1.5 L296,1.5 L296,-0.5 L292,-0.5 L292,1.5 Z M300,1.5 L304,1.5 L304,-0.5 L300,-0.5 L300,1.5 Z M308,1.5 L312,1.5 L312,-0.5 L308,-0.5 L308,1.5 Z M316,1.5 L320,1.5 L320,-0.5 L316,-0.5 L316,1.5 Z M324,1.5 L328,1.5 L328,-0.5 L324,-0.5 L324,1.5 Z M332,1.5 L336,1.5 L336,-0.5 L332,-0.5 L332,1.5 Z M340,1.5 L344,1.5 L344,-0.5 L340,-0.5 L340,1.5 Z M348,1.5 L352,1.5 L352,-0.5 L348,-0.5 L348,1.5 Z M356,1.5 L360,1.5 L360,-0.5 L356,-0.5 L356,1.5 Z" id="路径-7"></path>
                    </g>
                    <g id="编组-2" transform="translate(180.000000, 180.000000) rotate(-90.000000) translate(-180.000000, -180.000000) translate(0.000000, 179.500000)" fill="#4699FA" fill-rule="nonzero">
                        <polygon id="路径-7" points="180 -0.5 180 1.5 0 1.5 0 -0.5"></polygon>
                        <path d="M180,1.5 L184,1.5 L184,-0.5 L180,-0.5 L180,1.5 Z M188,1.5 L192,1.5 L192,-0.5 L188,-0.5 L188,1.5 Z M196,1.5 L200,1.5 L200,-0.5 L196,-0.5 L196,1.5 Z M204,1.5 L208,1.5 L208,-0.5 L204,-0.5 L204,1.5 Z M212,1.5 L216,1.5 L216,-0.5 L212,-0.5 L212,1.5 Z M220,1.5 L224,1.5 L224,-0.5 L220,-0.5 L220,1.5 Z M228,1.5 L232,1.5 L232,-0.5 L228,-0.5 L228,1.5 Z M236,1.5 L240,1.5 L240,-0.5 L236,-0.5 L236,1.5 Z M244,1.5 L248,1.5 L248,-0.5 L244,-0.5 L244,1.5 Z M252,1.5 L256,1.5 L256,-0.5 L252,-0.5 L252,1.5 Z M260,1.5 L264,1.5 L264,-0.5 L260,-0.5 L260,1.5 Z M268,1.5 L272,1.5 L272,-0.5 L268,-0.5 L268,1.5 Z M276,1.5 L280,1.5 L280,-0.5 L276,-0.5 L276,1.5 Z M284,1.5 L288,1.5 L288,-0.5 L284,-0.5 L284,1.5 Z M292,1.5 L296,1.5 L296,-0.5 L292,-0.5 L292,1.5 Z M300,1.5 L304,1.5 L304,-0.5 L300,-0.5 L300,1.5 Z M308,1.5 L312,1.5 L312,-0.5 L308,-0.5 L308,1.5 Z M316,1.5 L320,1.5 L320,-0.5 L316,-0.5 L316,1.5 Z M324,1.5 L328,1.5 L328,-0.5 L324,-0.5 L324,1.5 Z M332,1.5 L336,1.5 L336,-0.5 L332,-0.5 L332,1.5 Z M340,1.5 L344,1.5 L344,-0.5 L340,-0.5 L340,1.5 Z M348,1.5 L352,1.5 L352,-0.5 L348,-0.5 L348,1.5 Z M356,1.5 L360,1.5 L360,-0.5 L356,-0.5 L356,1.5 Z" id="路径-7"></path>
                    </g>
                    <path d="M175.041387,334.922197 C175.92305,334.949902 176.805704,334.970218 177.689292,334.983129 L179.015366,334.996939 L179.002926,336.9969 C178.107223,336.991329 177.212424,336.978251 176.31859,336.957681 L174.978571,336.921211 L175.041387,334.922197 Z M167.097661,334.4707 C167.976987,334.543155 168.857558,334.608201 169.739312,334.665821 L171.062821,334.746678 L170.949318,336.743454 C170.055112,336.692625 169.162063,336.634264 168.270237,336.568389 L166.933421,336.463945 L167.097661,334.4707 Z M159.190371,333.615232 C160.064908,333.732573 160.940957,333.842514 161.81845,333.945033 L163.135764,334.093243 L162.920636,336.081639 C162.030399,335.985323 161.141584,335.881478 160.254261,335.770125 L158.924404,335.597468 L159.190371,333.615232 Z M151.332988,332.354501 C152.200311,332.516677 153.069421,332.671489 153.94025,332.81891 L155.247773,333.034496 L154.930866,335.009228 C154.047044,334.867392 153.164923,334.718056 152.284574,334.561246 L150.965389,334.320429 L151.332988,332.354501 Z M143.554213,330.691202 C144.412476,330.898032 145.272815,331.09755 146.135158,331.289725 L147.430166,331.572479 L147.011945,333.528263 C146.136394,333.341037 145.262833,333.146358 144.391338,332.944256 L143.085653,332.635541 L143.554213,330.691202 Z M135.925116,328.644113 C136.771605,328.89472 137.620462,329.1381 138.471614,329.374219 L139.750053,329.722948 L139.232045,331.654701 C138.36752,331.422874 137.50528,331.183676 136.645402,330.93714 L135.357365,330.561835 L135.925116,328.644113 Z M128.428335,326.214037 C129.261252,326.507817 130.096839,326.794472 130.935019,327.073964 L132.194223,327.487825 L131.577944,329.390507 C130.726256,329.114646 129.877156,328.831509 129.030721,328.541136 L127.76308,328.100154 L128.428335,326.214037 Z M120.994625,323.373856 C121.811297,323.710323 122.630945,324.039797 123.453492,324.362237 L124.689476,324.840615 L123.975613,326.708877 C123.139462,326.389383 122.306208,326.062744 121.475931,325.729 L120.232757,325.223061 L120.994625,323.373856 Z M113.709823,320.149801 C114.508256,320.528127 115.309978,320.899614 116.114908,321.264213 L117.324698,321.805941 L116.515186,323.63479 C115.696585,323.272449 114.881194,322.903109 114.069095,322.526816 L112.853425,321.95717 L113.709823,320.149801 Z M106.601565,316.554243 C107.378677,316.972828 108.159382,317.384763 108.943597,317.789997 L110.122543,318.392816 L109.219667,320.177421 C108.421763,319.773741 107.627377,319.363249 106.83659,318.945996 L105.65312,318.315053 L106.601565,316.554243 Z M99.6962685,312.602449 C100.451033,313.060519 101.209699,313.512133 101.972187,313.957234 L103.118775,314.619997 L102.125307,316.355802 C101.349121,315.911561 100.576766,315.460698 99.8083252,315.003268 L98.6586092,314.312204 L99.6962685,312.602449 Z M92.9947907,308.296 C93.7254278,308.79246 94.4602779,309.282673 95.1992605,309.766578 L96.3108237,310.487698 L95.2295016,312.170179 C94.4768309,311.686441 93.7283068,311.196286 92.9840109,310.699774 L91.8707483,309.950246 L92.9947907,308.296 Z M86.5231498,303.651812 C87.2271402,304.184843 87.9356426,304.711864 88.6485776,305.232811 L89.7212945,306.009667 L88.5551234,307.634489 C87.8285503,307.113011 87.106428,306.585349 86.3888367,306.051569 L85.3158582,305.246317 L86.5231498,303.651812 Z M80.3057331,298.689342 C80.9819798,299.257959 81.6630396,299.820805 82.3488345,300.377814 L83.3810684,301.20894 L82.1334104,302.772062 C81.4340336,302.213831 80.7394142,301.649654 80.0496311,301.079599 L79.0185935,300.220117 L80.3057331,298.689342 Z M74.3438142,293.410575 C74.9899517,294.012799 75.6411876,294.609518 76.2974459,295.20066 L77.2855909,296.083182 L75.9596996,297.580517 C75.2899556,296.987458 74.6252606,296.388716 73.9656914,295.784362 L72.9801914,294.873631 L74.3438142,293.410575 Z M68.6609641,287.836254 C69.276065,288.471207 69.8965519,289.100919 70.5223516,289.725315 L71.4650265,290.657913 L70.0644888,292.085671 C69.4253027,291.458672 68.7914603,290.826251 68.1630359,290.188483 L67.224472,289.227832 L68.6609641,287.836254 Z M63.269149,281.978343 C63.8500301,282.642706 64.4365454,283.302129 65.0286251,283.956534 L65.920909,284.934371 L64.4492795,286.288737 C63.8439879,285.631038 63.2442961,284.968219 62.650275,284.300357 L61.7635052,283.294791 L63.269149,281.978343 Z M58.1893339,275.860236 C58.736044,276.553983 59.2886527,277.243073 59.847093,277.927427 L60.689119,278.950396 L59.1503666,280.227988 C58.5788673,279.539665 58.01324,278.846505 57.4535523,278.148586 L56.618484,277.09815 L58.1893339,275.860236 Z M53.4569861,269.530943 C53.9680713,270.251991 54.4853007,270.968672 55.0086112,271.680908 L55.7981299,272.745917 L54.1965546,273.943814 C53.6603724,273.226944 53.1303166,272.505529 52.606451,271.77965 L51.8253032,270.687494 L53.4569861,269.530943 Z M49.0298323,262.933689 C49.5032463,263.679739 49.9830251,264.42173 50.4691096,265.159579 L51.2029584,266.263238 L49.5422605,267.377726 C49.0435418,266.634585 48.5511792,265.887208 48.0652324,265.135676 L47.3411314,264.005272 L49.0298323,262.933689 Z M44.9304345,256.090348 C45.3646182,256.859412 45.8053672,257.624728 46.2526272,258.386215 L46.9283934,259.525563 L45.212583,260.55318 C44.7529671,259.785759 44.2999174,259.014418 43.8534891,258.239237 L43.1888198,257.073597 L44.9304345,256.090348 Z M41.1986605,249.064036 C41.5925915,249.854199 41.9932712,250.640925 42.4006493,251.424135 L43.0167341,252.596302 L41.2503742,253.53437 C40.8309514,252.744608 40.4182874,251.951239 40.0124329,251.154348 L39.4087649,249.956377 L41.1986605,249.064036 Z M37.8344284,241.856412 C38.187395,242.666504 38.5472878,243.473464 38.9140611,244.277211 L39.4693756,245.480413 L37.6570689,246.326312 C37.2785806,245.515414 36.9070379,244.701221 36.5424874,243.883811 L36.0009117,242.655296 L37.8344284,241.856412 Z M34.8452296,234.481183 C35.155833,235.308336 35.4735055,236.132665 35.7982057,236.954091 L36.2905218,238.184043 L34.4369578,238.935243 C34.1009304,238.106105 33.7720006,237.273985 33.4502103,236.438964 L32.9728849,235.184266 L34.8452296,234.481183 Z M32.2518278,226.994324 C32.5191852,227.835633 32.7937197,228.674426 33.0753944,229.510626 L33.5032569,230.762972 L31.6134643,231.417711 C31.3209026,230.573283 31.0355552,229.726188 30.7574594,228.876505 L30.3457591,227.600048 L32.2518278,226.994324 Z M30.0358427,219.339294 C30.2597916,220.195366 30.4910494,221.049209 30.729583,221.900749 L31.0928362,223.176322 L29.1716926,223.732386 C28.9226947,222.872124 28.6810507,222.009492 28.4467942,221.144565 L28.1009541,219.845463 L30.0358427,219.339294 Z M28.2205251,211.586153 C28.3998393,212.452294 28.5865284,213.316501 28.7805632,214.178702 L29.0771213,215.470489 L27.129773,215.926378 C26.9257841,215.05503 26.7292224,214.181615 26.540117,213.306207 L26.2620548,211.991608 L28.2205251,211.586153 Z M26.8125073,203.779058 C26.9471047,204.65333 27.0891242,205.52595 27.2385408,206.396848 L27.4682103,207.701896 L25.4999854,208.056988 C25.3411476,207.176575 25.1897905,206.294385 25.0459395,205.410491 L24.8357959,204.08338 L26.8125073,203.779058 Z M25.8026204,195.871956 C25.8919225,196.750007 25.9886341,197.626685 26.0927338,198.501924 L26.2544216,199.813695 L24.2705037,200.066814 C24.1575848,199.181771 24.052139,198.295243 23.9541878,197.407297 L23.8128847,196.074322 L25.8026204,195.871956 Z M25.2005286,187.953893 C25.2451906,188.837565 25.2972948,189.720116 25.3568227,190.601485 L25.4516801,191.922642 L23.4574405,192.074327 C23.3896368,191.182895 23.329343,190.29024 23.2765776,189.396427 L23.2030781,188.054847 L25.2005286,187.953893 Z M25,180 C25,180.885297 25.007421,181.769719 25.0222475,182.653207 L25.0500396,183.977731 L23.0506736,184.028088 C23.0281636,183.134361 23.0131453,182.239668 23.0056343,181.34407 L23,180 L25,180 Z M336.949326,175.971912 C336.971836,176.865639 336.986855,177.760332 336.994366,178.65593 L337,180 L335,180 C335,179.114703 334.992579,178.230281 334.977752,177.346793 L334.94996,176.022269 L336.949326,175.971912 Z M336.542559,167.925673 C336.610363,168.817105 336.670657,169.70976 336.723422,170.603573 L336.796922,171.945153 L334.799471,172.046107 C334.754809,171.162435 334.702705,170.279884 334.643177,169.398515 L334.54832,168.077358 L336.542559,167.925673 Z M335.729496,159.933186 C335.842415,160.818229 335.947861,161.704757 336.045812,162.592703 L336.187115,163.925678 L334.19738,164.128044 C334.108077,163.249993 334.011366,162.373315 333.907266,161.498076 L333.745578,160.186305 L335.729496,159.933186 Z M334.500015,151.943012 C334.658852,152.823425 334.810209,153.705615 334.95406,154.589509 L335.164204,155.91662 L333.187493,156.220942 C333.052895,155.34667 332.910876,154.47405 332.761459,153.603152 L332.53179,152.298104 L334.500015,151.943012 Z M332.870227,144.073622 C333.074216,144.94497 333.270778,145.818385 333.459883,146.693793 L333.737945,148.008392 L331.779475,148.413847 C331.600161,147.547706 331.413472,146.683499 331.219437,145.821298 L330.922879,144.529511 L332.870227,144.073622 Z M330.828307,136.267614 C331.077305,137.127876 331.318949,137.990508 331.553206,138.855435 L331.899046,140.154537 L329.964157,140.660706 C329.740208,139.804634 329.508951,138.950791 329.270417,138.099251 L328.907164,136.823678 L330.828307,136.267614 Z M328.386536,128.582289 C328.679097,129.426717 328.964445,130.273812 329.242541,131.123495 L329.654241,132.399952 L327.748172,133.005676 C327.480815,132.164367 327.20628,131.325574 326.924606,130.489374 L326.496743,129.237028 L328.386536,128.582289 Z M325.563042,121.064757 C325.89907,121.893895 326.227999,122.726015 326.54979,123.561036 L327.027115,124.815734 L325.15477,125.518817 C324.844167,124.691664 324.526495,123.867335 324.201794,123.045909 L323.709478,121.815957 L325.563042,121.064757 Z M322.342931,113.673688 C322.721419,114.484586 323.092962,115.298779 323.457513,116.116189 L323.999088,117.344704 L322.165572,118.143588 C321.812605,117.333496 321.452712,116.526536 321.085939,115.722789 L320.530624,114.519587 L322.342931,113.673688 Z M318.749626,106.46563 C319.169049,107.255392 319.581713,108.048761 319.987567,108.845652 L320.591235,110.043623 L318.801339,110.935964 C318.407408,110.145801 318.006729,109.359075 317.599351,108.575865 L316.983266,107.403698 L318.749626,106.46563 Z M314.787417,99.4468204 C315.247033,100.214241 315.700083,100.985582 316.146511,101.760763 L316.81118,102.926403 L315.069565,103.909652 C314.635382,103.140588 314.194633,102.375272 313.747373,101.613785 L313.071607,100.474437 L314.787417,99.4468204 Z M310.45774,92.6222742 C310.956458,93.3654148 311.448821,94.1127921 311.934768,94.8643242 L312.658869,95.9947285 L310.970168,97.0663112 C310.496754,96.3202608 310.016975,95.5782703 309.53089,94.8404206 L308.797042,93.7367617 L310.45774,92.6222742 Z M305.803445,86.0561858 C306.339628,86.7730557 306.869683,87.4944706 307.393549,88.2203496 L308.174697,89.3125061 L306.543014,90.4690575 C306.031929,89.7480095 305.514699,89.0313276 304.991389,88.3190918 L304.20187,87.2540825 L305.803445,86.0561858 Z M300.849633,79.7720121 C301.421133,80.4603352 301.98676,81.1534955 302.546448,81.8514139 L303.381516,82.9018502 L301.810666,84.1397641 C301.263956,83.4460166 300.711347,82.7569268 300.152907,82.072573 L299.310881,81.049604 L300.849633,79.7720121 Z M295.550721,73.7112631 C296.156012,74.3689621 296.755704,75.031781 297.349725,75.699643 L298.236495,76.7052087 L296.730851,78.0216571 C296.14997,77.3572939 295.563455,76.6978714 294.971375,76.0434656 L294.079091,75.0656288 L295.550721,73.7112631 Z M289.935511,67.9143287 C290.574697,68.5413284 291.20854,69.1737492 291.836964,69.8115165 L292.775528,70.772168 L291.339036,72.1637464 C290.723935,71.5287929 290.103448,70.8990813 289.477648,70.2746852 L288.534974,69.3420872 L289.935511,67.9143287 Z M284.0403,62.4194834 C284.710044,63.0125422 285.374739,63.6112843 286.034309,64.2156382 L287.019809,65.1263689 L285.656186,66.5894249 C285.010048,65.9872007 284.358812,65.3904823 283.702554,64.7993403 L282.714409,63.9168184 L284.0403,62.4194834 Z M277.86659,57.2279384 C278.565966,57.7861694 279.260586,58.3503463 279.950369,58.9204009 L280.981407,59.7798827 L279.694267,61.3106576 C279.01802,60.742041 278.33696,60.1791948 277.651165,59.6221863 L276.618932,58.7910601 L277.86659,57.2279384 Z M271.444877,52.3655114 C272.17145,52.8869893 272.893572,53.4146506 273.611163,53.948431 L274.684142,54.7536832 L273.47685,56.3481884 C272.77286,55.8151567 272.064357,55.2881359 271.351422,54.7671893 L270.278705,53.9903328 L271.444877,52.3655114 Z M264.770498,47.8298209 C265.523169,48.3135585 266.271693,48.8037135 267.015989,49.3002257 L268.129252,50.0497543 L267.005209,51.704 C266.274572,51.2075398 265.539722,50.7173274 264.80074,50.2334221 L263.689176,49.512302 L264.770498,47.8298209 Z M257.874693,43.6441976 C258.650879,44.0884386 259.423234,44.5393021 260.191675,44.9967325 L261.341391,45.6877962 L260.303731,47.3975514 C259.548967,46.9394811 258.790301,46.4878675 258.027813,46.0427655 L256.881225,45.3800033 L257.874693,43.6441976 Z M250.780333,39.8225795 C251.578237,40.226259 252.372623,40.6367508 253.16341,41.0540036 L254.34688,41.6849471 L253.398435,43.445757 C252.621323,43.0271719 251.840618,42.6152371 251.056403,42.2100032 L249.877457,41.6071843 L250.780333,39.8225795 Z M243.484814,36.3652096 C244.303415,36.7275509 245.118806,37.0968912 245.930905,37.4731836 L247.146575,38.0428302 L246.290177,39.8501995 C245.491744,39.4718726 244.690022,39.1003863 243.885092,38.735787 L242.675302,38.1940591 L243.484814,36.3652096 Z M236.024387,33.2911234 C236.860538,33.6106165 237.693792,33.9372563 238.524069,34.2710003 L239.767243,34.7769391 L239.005375,36.6261437 C238.188703,36.2896769 237.369055,35.9602028 236.546508,35.6377631 L235.310524,35.1593848 L236.024387,33.2911234 Z M228.422056,30.6094926 C229.273744,30.8853545 230.122844,31.168491 230.969279,31.458864 L232.23692,31.8998462 L231.571665,33.7859625 C230.738748,33.4921829 229.903161,33.2055284 229.064981,32.9260364 L227.805777,32.512175 L228.422056,30.6094926 Z M220.767955,28.3452993 C221.63248,28.5771256 222.49472,28.8163239 223.354598,29.0628604 L224.642635,29.4381646 L224.074884,31.3558869 C223.228395,31.10528 222.379538,30.8619002 221.528386,30.625781 L220.249947,30.2770518 L220.767955,28.3452993 Z M212.988055,26.471737 C213.863606,26.6589634 214.737167,26.8536422 215.608662,27.0557438 L216.914347,27.3644594 L216.445787,29.3087978 C215.587524,29.1019678 214.727185,28.9024503 213.864842,28.7102746 L212.569834,28.427521 L212.988055,26.471737 Z M205.069134,24.9907716 C205.952956,25.1326083 206.835077,25.2819444 207.715426,25.4387543 L209.034611,25.6795713 L208.667012,27.6454988 C207.799689,27.4833226 206.930579,27.3285113 206.05975,27.1810902 L204.752227,26.9655045 L205.069134,24.9907716 Z M197.079364,23.9183605 C197.969601,24.0146767 198.858416,24.1185223 199.745739,24.229875 L201.075596,24.4025318 L200.809629,26.3847683 C199.935092,26.267427 199.059043,26.1574858 198.18155,26.0549665 L196.864236,25.9067569 L197.079364,23.9183605 Z M189.050682,23.2565457 C189.944888,23.3073751 190.837937,23.3657364 191.729763,23.431611 L193.066579,23.5360553 L192.902339,25.5293002 C192.023013,25.4568453 191.142442,25.3917987 190.260688,25.3341791 L188.937179,25.2533224 L189.050682,23.2565457 Z M180.997074,23.0031001 C181.892777,23.0086713 182.787576,23.0217494 183.68141,23.0423188 L185.021429,23.0787894 L184.958613,25.0778027 C184.07695,25.0500977 183.194296,25.029782 182.310708,25.0168715 L180.984634,25.0030614 L180.997074,23.0031001 Z" id="形状" fill="#4699FA" fill-rule="nonzero"></path>
                    <path d="M337,180 C337,265.841619 268.107502,335.592532 182.596282,336.978966 L180,337 L180,335 C264.748095,335 333.610462,266.985114 334.979234,182.563208 L335,180 L337,180 Z M180,23 L180,25 C95.2519051,25 26.3895381,93.0148861 25.0207656,177.436792 L25,180 L23,180 C23,93.2912943 93.2912943,23 180,23 Z" id="形状" fill="#4699FA" fill-rule="nonzero"></path>
                    <circle id="椭圆形" stroke-opacity="0.2" stroke="#3188F5" stroke-width="2" fill-opacity="0.1" fill="#3188F5" cx="180" cy="180" r="111"></circle>
                    <circle id="椭圆形" stroke-opacity="0.2" stroke="#3188F5" stroke-width="2" fill-opacity="0.08" fill="#3188F5" cx="180" cy="180" r="51"></circle>
                </g>
            </g>
        </g>
    </g>
</svg>