<?xml version="1.0" standalone="no"?><!DOCTYPE svg PUBLIC "-//W3C//DTD SVG 1.1//EN"
    "http://www.w3.org/Graphics/SVG/1.1/DTD/svg11.dtd">
<svg t="1632885308405" class="icon" viewBox="0 0 1285 1024" version="1.1"
    xmlns="http://www.w3.org/2000/svg" p-id="9509" xmlns:xlink="http://www.w3.org/1999/xlink"
    width="250.9765625" height="200">
    <defs>
    </defs>
    <path
        d="M1169.106824 1.66651H115.912784A103.624784 103.624784 0 0 0 12.247843 105.311373v800.88847a103.624784 103.624784 0 0 0 103.644863 103.604706h1053.194039a103.624784 103.624784 0 0 0 103.644863-103.604706V105.311373A103.725176 103.725176 0 0 0 1169.106824 1.66651z m-396.629334 178.698039a103.785412 103.785412 0 1 1 0 207.550745 103.785412 103.785412 0 0 1 0-207.570823zM115.491137 871.966118s84.891608-495.073882 282.302745-495.073883c193.455686 0 242.748235 346.232471 378.900079 346.232471 85.895529 0 76.880314-156.29051 213.172706-156.29051 97.721725 0 159.824314 305.131922 159.824313 305.131922H115.491137z"
        p-id="9510"></path>
</svg>